<svg width="100" height="100" viewBox="0 0 100 100" fill="none" xmlns="http://www.w3.org/2000/svg">
  <style>
    path {
      fill: rgb(255 255 255);
    }

    rect {
      fill: rgb(17 24 39);
    }

    @media (prefers-color-scheme: dark) {
      path {
        fill: rgb(17 24 39);
      }

      rect {
        fill: rgb(255 255 255);
      }
    }
  </style>

  <rect width="100" height="100" fill="white"/>
  <path d="M47.9693 25H61.7176V57.2934C61.7176 61.1332 60.7944 64.4561 58.9481 67.2621C57.1183 70.0516 54.5632 72.2095 51.2827 73.7355C48.0023 75.2452 44.1943 76 39.8588 76C35.4903 76 31.6659 75.2452 28.3854 73.7355C25.1049 72.2095 22.5498 70.0516 20.72 67.2621C18.9067 64.4561 18 61.1332 18 57.2934V25H31.7483V56.112C31.7483 57.6709 32.0945 59.0656 32.7868 60.2963C33.4792 61.5106 34.4353 62.4624 35.6552 63.1515C36.8915 63.8407 38.2927 64.1853 39.8588 64.1853C41.4413 64.1853 42.8425 63.8407 44.0624 63.1515C45.2823 62.4624 46.2384 61.5106 46.9307 60.2963C47.6231 59.0656 47.9693 57.6709 47.9693 56.112V25Z" fill="black"/>
  <path d="M82 25V75.4093H68.2517V25H82Z" fill="black"/>
</svg>
