<svg enable-background="new 0 0 429.02 120.17" viewBox="0 0 429.02 120.17" xmlns="http://www.w3.org/2000/svg"><path d="m14.12 58.37c-.25 7.07 1.11 13.95 3.8 20.2 1.46 3.38 5.73 4.46 8.61 2.17l15.12-12.05c3.5-2.79 2.45-8.37-1.83-9.69l-18.48-5.71c-3.5-1.09-7.09 1.43-7.22 5.08z" fill="#ec673b"/><path d="m28.99 25.63c-4.97 4.64-8.97 10.4-11.58 16.98-1.35 3.4.94 7.15 4.58 7.56l19.22 2.17c4.45.5 7.65-4.18 5.56-8.15l-9.02-17.1c-1.73-3.25-6.07-3.97-8.76-1.46z" fill="#ffcc07"/><path d="m108.17 61.6c.25-7.07-1.11-13.95-3.8-20.19-1.46-3.38-5.73-4.46-8.61-2.17l-15.12 12.05c-3.5 2.79-2.45 8.37 1.83 9.69l18.48 5.71c3.49 1.08 7.09-1.44 7.22-5.09z" fill="#62398e"/><path d="m95.49 27.83c-4.64-4.97-10.4-8.97-16.98-11.58-3.4-1.35-7.15.94-7.56 4.57l-2.17 19.22c-.5 4.45 4.18 7.65 8.15 5.56l17.1-9.02c3.26-1.72 3.98-6.06 1.46-8.75z" fill="#35398e"/><path d="m93.3 94.33c4.97-4.64 8.97-10.4 11.58-16.98 1.35-3.4-.94-7.15-4.57-7.56l-19.22-2.17c-4.45-.5-7.65 4.18-5.56 8.15l9.02 17.1c1.72 3.26 6.06 3.98 8.75 1.46z" fill="#913b8e"/><path d="m59.57 107.04c7.07.23 13.95-1.14 20.19-3.85 3.38-1.47 4.44-5.74 2.14-8.61l-12.09-15.09c-2.8-3.5-8.37-2.43-9.69 1.85l-5.66 18.49c-1.08 3.5 1.45 7.09 5.11 7.21z" fill="#b9338a"/><path d="m62.14 38.66 5.71-18.48c1.08-3.49-1.44-7.09-5.09-7.22-7.07-.25-13.95 1.11-20.19 3.8-3.38 1.46-4.46 5.73-2.17 8.61l12.05 15.12c2.79 3.5 8.36 2.45 9.69-1.83z" fill="#9ac43b"/><path d="m26.79 92.14c4.64 4.97 10.4 8.97 16.98 11.58 3.4 1.35 7.15-.94 7.56-4.58l2.17-19.22c.5-4.45-4.18-7.65-8.15-5.56l-17.1 9.02c-3.25 1.73-3.97 6.07-1.46 8.76z" fill="#cd3433"/><g fill="#020203"><path d="m166.43 58.49c.25.78.29 2.05.12 3.82l-.06.55c-.04.45-.06.8-.06 1.05l-.06 6.1v.43.31c0 1.48-.1 2.63-.31 3.45-.08.29-.16.55-.25.8-.86 2.3-2.71 3.99-5.55 5.05-2.46.99-5.4 1.48-8.81 1.48-.25 0-.53 0-.86 0h-.12l-.74-.06c-.78-.04-1.56-.1-2.34-.18l-.74-.06h-.12c-.41-.08-.76-.14-1.05-.18l-.49-.06c-1.19-.21-2.34-.47-3.45-.8-.49-.16-.97-.33-1.42-.49l-.43-.12c-2.26-.82-4.3-2.31-6.13-4.47s-3.24-4.41-4.22-6.75c-1.15-2.67-1.79-5.48-1.91-8.44s.27-5.79 1.17-8.5c.25-.74.53-1.46.86-2.16.99-2.22 2.33-4.18 4.04-5.89 1.7-1.7 3.67-3.03 5.89-3.97l.12-.12.62-.18.06-.06c.86-.33 1.85-.64 2.96-.92l.55-.12.18-.06h.06c4.35-.99 8.77-.92 13.25.19.16.04.31.08.43.12 3.2.86 5.51 2.47 6.9 4.81.41.7.62 1.34.62 1.91 0 .49-.25 1.13-.74 1.91-.78 1.32-1.6 2.01-2.46 2.1-.25.04-.49.02-.74-.06h-.06-.12l-.86-.31.18-.06c-.04 0-.08-.02-.12-.06-.16-.08-.29-.14-.37-.18-.49-.25-1.17-.49-2.03-.74-.16-.04-.39-.1-.68-.18-1.97-.53-3.88-.78-5.73-.74-3.25.12-5.98 1.09-8.2 2.9-2.38 1.89-3.8 4.66-4.25 8.32-.29 2.26-.12 4.4.49 6.41.25.66.51 1.27.8 1.85 1.15 2.22 2.79 3.85 4.93 4.9s4.4 1.35 6.78.89c1.44-.29 2.46-.84 3.08-1.66.41-.62.58-1.38.52-2.28s-.34-1.68-.83-2.34c-.7-.86-1.93-1.29-3.7-1.29-.16 0-.47.02-.92.06-.29.04-.6.05-.92.03-.33-.02-.63-.06-.89-.12-.27-.06-.5-.23-.71-.49-.21-.27-.37-.61-.49-1.02-.37-1.64-.51-2.9-.43-3.76.04-.12.06-.29.06-.49l.06-.06c.29-1.31.94-2.22 1.97-2.71.53-.25 1.31-.37 2.34-.37.53 0 1.31-.02 2.34-.06h.06l.62-.06h.06.12c1.19-.04 2.18-.04 2.96 0 .41 0 1.03-.02 1.85-.06 1.56-.08 2.73-.04 3.51.12.82.21 1.6.58 2.34 1.11.73.46 1.23 1.16 1.47 2.02z"/><path d="m201.87 76.86-.43.62-.06.12h-.06c-.66.82-1.54 1.52-2.65 2.1s-2.18.99-3.2 1.23c-1.89.41-3.78.62-5.67.62-4.44 0-8.28-1.03-11.52-3.08-1.85-1.15-3.37-2.57-4.56-4.25s-2.01-3.57-2.46-5.67c-.12-.62-.25-1.36-.37-2.22l-.06-.49v-.25c-.12-1.36-.14-2.69-.06-4.01l.06-.25v-.49h.06c.21-1.89.62-3.55 1.23-4.99 1.07-2.51 2.71-4.58 4.93-6.22l.12-.06.62-.49v.06c1.52-.99 3.18-1.73 4.99-2.22v-.06l.74-.12.12-.06c3.24-.7 6.43-.55 9.55.43 3.16.99 5.47 2.58 6.93 4.78s1.98 4.92 1.57 8.17c-.41 3.66-3.96 5.94-10.66 6.84-.41.08-1.05.16-1.91.25-2.22.21-3.84.49-4.87.86-.62.25-1.03.6-1.23 1.05-.16.41-.14.88.06 1.42.12.37.35.7.68.99.57.58 1.29 1.01 2.16 1.29 1.77.49 3.57.61 5.42.34s3.55-.77 5.11-1.51c.16-.04.37-.1.62-.18l.06-.06h.12l.74-.25-.06.06c1.89-.33 3.18.16 3.88 1.48.82 1.44.84 2.86.06 4.22zm-9.99-21.51c-.99-.53-2.18-.8-3.57-.8-2.1.04-3.84.66-5.24 1.85-.78.66-1.11 1.42-.99 2.28.12.82.62 1.44 1.48 1.85.7.33 1.56.46 2.59.4s1.98-.19 2.87-.4c.88-.21 1.67-.47 2.37-.8.41-.2.8-.45 1.17-.74.62-.53.92-1.07.92-1.6.04-.41-.12-.8-.49-1.17-.28-.34-.65-.63-1.11-.87z"/><path d="m226.52 73.1c.7.62 1.11 1.46 1.23 2.53v.37.31h-.06c-.04 1.03-.35 1.89-.92 2.59-1.23 1.56-3.41 2.42-6.53 2.59-.41.04-.82.06-1.23.06-3.86 0-6.86-.92-9-2.77l-.74-.68h.06c-.33-.37-.62-.74-.86-1.11-.08-.16-.18-.35-.31-.55v.06l-.37-.92h-.06v-.12c-.62-1.52-.92-3.9-.92-7.15 0-1.81 0-4.05 0-6.72v-3.7c0-.57 0-1.48 0-2.71.04-1.81.04-3.2 0-4.19 0-1.36 0-2.59 0-3.7l-.06-.74c0-1.11.02-2.02.06-2.74s.26-1.54.65-2.47c.39-.92.98-1.63 1.76-2.13 1.23-.78 2.57-1.01 4.01-.68h.12l1.17.25-.18.06c.29.12.51.25.68.37.45.29.84.64 1.17 1.05v-.31l.62 1.17v.12c.33.66.57 1.75.74 3.27l.06.18c.08.66.24 1.19.46 1.6s.59.73 1.08.96.91.37 1.26.43.89.13 1.63.22c1.6.21 2.75.49 3.45.86.78.41 1.39 1.1 1.82 2.06.43.97.59 1.92.46 2.87-.12.66-.34 1.19-.65 1.6s-.71.71-1.2.89c-.49.19-.95.32-1.36.4s-.9.12-1.48.12h-.49c-1.03.04-1.77.12-2.22.25-1.27.29-2.16 1.13-2.65 2.53-.45 1.32-.51 3.66-.18 7.03.08 1.03.14 1.75.18 2.16.04 1.32.47 2.3 1.29 2.96.9.78 2.2 1.11 3.88.99.33-.04.64-.08.92-.12 1.11-.22 2.01-.02 2.71.6z"/><path d="m263.43 71.19c.9.25 1.6.76 2.1 1.54.49.78.66 1.66.49 2.65-.21 1.69-1.19 3.06-2.96 4.13-2.3 1.36-5.61 2.03-9.92 2.03-5.59 0-10.09-1.25-13.5-3.76-2.38-1.73-4.38-4.25-5.98-7.58-.62-1.31-1.15-2.71-1.6-4.19l-.06-.12-.25-.92.06.06c-.12-.49-.25-.99-.37-1.48v.06l-.19-.99v-.12c-.29-1.93-.37-3.8-.25-5.61.25-3.24 1.16-6.23 2.74-8.97 1.58-2.73 3.67-4.98 6.25-6.75.21-.12.43-.27.68-.43 1.11-.7 2.3-1.29 3.57-1.79 2.59-.94 5.34-1.42 8.26-1.42 4.15 0 7.4.66 9.74 1.97.37.25.76.53 1.17.86v.06l.12.06.8.68h-.12c1.15 1.27 1.68 2.49 1.6 3.64-.04.7-.35 1.34-.92 1.91-.86.86-2.03 1.29-3.51 1.29-.04 0-.14 0-.31 0l.06.06-1.11-.19h-.06c-.58-.08-1.34-.27-2.28-.55-.33-.08-.6-.14-.8-.18-1.77-.45-3.53-.5-5.3-.15s-3.33 1.06-4.68 2.13l-.18.12c-.82.7-1.54 1.6-2.16 2.71-1.03 1.77-1.62 3.81-1.79 6.13-.16 2.32.12 4.43.86 6.32.62 1.6 1.54 3.02 2.77 4.25s2.65 2.18 4.25 2.83c1.6.62 3.49.76 5.67.43.37-.08.96-.18 1.79-.31 1.73-.37 3.06-.57 4.01-.62h.31l-.06-.12.92.25z"/><path d="m300.78 67.86c.04 1.4.06 2.51.06 3.33v.25l-.06.49c-.08 1.52-.31 2.81-.68 3.88l-.18.49-.12.18c-.45.99-1.05 1.79-1.79 2.4-1.11.95-3.08 1.62-5.92 2.03-3 .41-5.55.62-7.64.62-2.84 0-5.36-.37-7.58-1.11-3.04-1.03-5.22-2.73-6.53-5.11l-.12-.25-.18-.37c-.58-1.36-.86-2.79-.86-4.31 0-1.89.35-3.53 1.05-4.93l.19-.37.12-.25c.45-.7.97-1.29 1.54-1.79 1.97-1.77 4.93-2.73 8.87-2.9h.68c1.07-.04 1.9-.09 2.5-.15.59-.06 1.3-.26 2.13-.59.82-.33 1.42-.78 1.79-1.36.37-.62.49-1.15.37-1.6s-.47-.82-1.05-1.11c-.66-.33-1.48-.51-2.47-.55-.7-.08-1.46-.04-2.28.12-.74.12-1.85.41-3.33.86-1.77.58-3.14.92-4.13 1.05-1.31.12-2.4-.27-3.27-1.17-.95-.99-1.27-2.26-.99-3.82.37-1.89 1.38-3.35 3.02-4.38s3.76-1.54 6.35-1.54h.06c1.44 0 2.79.04 4.07.12 5.14.45 9 1.85 11.59 4.19l.18.12.37.31-.06.06c.82.78 1.5 1.64 2.03 2.59.86 1.64 1.48 3.57 1.85 5.79h.06l.06.43v.25c.25 1.69.35 3.45.31 5.3-.06.6-.06 1.53-.01 2.8zm-19.79.18c-.78.45-1.15 1.13-1.11 2.03 0 .95.35 1.7 1.05 2.28.66.49 1.7.78 3.14.86h.62.06.06c1.15.29 2.23.02 3.24-.8s1.51-1.81 1.51-2.96c0-.16-.02-.33-.06-.49-.12-.33-.31-.62-.55-.86-.25-.25-.48-.44-.71-.59-.23-.14-.53-.25-.92-.31s-.7-.1-.92-.12c-.23-.02-.57-.05-1.02-.09h-.18l-.86.06c-1.37.17-2.48.5-3.35.99z"/><path d="m338.18 73.52c.04 1.03.08 2.03.12 3.02s-.22 1.91-.77 2.77-1.41 1.48-2.56 1.85c-.78.25-1.6.37-2.46.37-1.73 0-3.12-.47-4.19-1.42-.82-.78-1.23-2.3-1.23-4.56v-14.91c0-1.6-.51-2.92-1.54-3.94-.16-.16-.37-.35-.62-.55-1.07-.74-2.32-1.03-3.76-.86-.08 0-.23.02-.43.06h-.06c-.66.12-1.21.36-1.66.71s-.8.74-1.05 1.17-.44 1-.58 1.69c-.14.7-.24 1.34-.28 1.91-.04.58-.06 1.29-.06 2.16v.99 6.9c.04.37.08.92.12 1.66v.25l.06.06v.37c.08 1.11.12 2.01.12 2.71l-.06.74v.12c-.16 1.56-.66 2.75-1.48 3.57-.95.86-2.35 1.25-4.22 1.17s-3.28-.55-4.22-1.42c-.66-.53-1.11-1.29-1.36-2.28s-.36-1.83-.34-2.53.09-1.66.22-2.9c.08-.9.14-1.54.18-1.91.04-1.64.04-4.13 0-7.46 0-1.64 0-2.88 0-3.7 0-.29-.02-.76-.06-1.42 0-.33 0-.64 0-.92v-.12-.86.06c.04-1.56.31-2.83.8-3.82.33-.7.78-1.33 1.36-1.91l.68-.55.06-.12c.57-.45 1.19-.82 1.85-1.11 2.63-1.31 6.26-1.97 10.91-1.97 6.7-.08 11.32 1.58 13.87 4.99 1.44 1.93 2.28 4.95 2.53 9.06.04 1.27.04 3 0 5.18v.68c-.04 2.88 0 5.03.12 6.47v.55z"/><path d="m376.82 39.33c.41 1.48.59 3.39.55 5.73-.08 2.14-.12 4.42-.12 6.84-.04 2.67-.06 5.2-.06 7.58v.18 3.08c.08 6.12-1.19 10.76-3.82 13.93-.37.41-.84.86-1.42 1.36l-.06.06-.8.68v-.07c-.41.29-.84.55-1.29.8l.06.06-.92.37-.13.07c-2.26 1.03-4.83 1.54-7.7 1.54-2.46 0-4.91-.39-7.33-1.17-2.22-.7-4.21-1.89-5.98-3.57s-3.12-3.74-4.07-6.16c-1.52-3.78-1.73-7.72-.62-11.83.25-.99.62-1.97 1.11-2.96l.06-.18.25-.55h.06c1.03-1.97 2.38-3.68 4.07-5.12l.49-.37.12-.12c2.83-2.14 5.96-3.24 9.37-3.33 1.23-.04 2.46.06 3.7.31.74.16 1.58.37 2.53.62-.04-.53-.06-1.36-.06-2.47l.06-.49c0-.25 0-.66 0-1.23-.04-.99-.04-1.76 0-2.31s.18-1.23.43-2.03.62-1.47 1.11-2c1.4-1.44 3.41-1.95 6.04-1.54.25.04.51.1.8.18h.06l.12.06.68.25h-.06c1.11.62 1.95 1.64 2.53 3.08l.18.55zm-14.85 32.35c2.3-.45 3.51-2.24 3.64-5.36 0-.16.02-.49.06-.99.04-.86.06-1.54.06-2.03s-.03-1.11-.09-1.85-.2-1.4-.4-1.97c-.21-.57-.49-1.09-.86-1.54-.25-.29-.49-.51-.74-.68-.74-.66-1.64-1.01-2.71-1.05l-.12-.06c-.08 0-.16 0-.25 0-1.27 0-2.38.37-3.33 1.11-1.4 1.07-2.26 2.73-2.59 4.99s-.1 4.27.68 6.04c.16.45.35.84.55 1.17.45.86.98 1.45 1.57 1.76.6.31 1.39.5 2.37.59.78.03 1.5-.01 2.16-.13z"/><path d="m414.04 51.22c.16 1.32-.12 3.33-.86 6.04-.12.58-.23.99-.31 1.23 0 .12-.04.27-.12.43l-.19.99h-.06c-.16.74-.37 1.5-.62 2.28l-.25.68v.18h-.06c-.58 1.85-1.38 4.07-2.4 6.66-1.27 3.2-2.59 6.1-3.94 8.69h.06l-.31.49-.06.18c-.66 1.19-1.32 2.32-1.97 3.39l-.06.18-.31.43c-1.73 2.71-3.53 5.03-5.42 6.96-.58.66-1.23 1.21-1.97 1.66s-1.52.81-2.34 1.08-1.62.4-2.4.4c-1.19 0-2.22-.33-3.08-.99h-.06l-.31-.25-.18-.18v-.05c-.58-.62-1.03-1.38-1.36-2.28-.12-.37-.21-.74-.25-1.11h-.06v-.68h.06c.08-.62.31-1.14.68-1.57s.9-.91 1.6-1.45c.66-.49 1.13-.88 1.42-1.17.37-.37.82-.99 1.36-1.85.37-.62.66-1.07.86-1.36.21-.57.18-1.21-.06-1.91-.25-.82-.84-1.97-1.79-3.45-.78-1.15-1.29-2.03-1.54-2.65-1.07-2.26-2.26-5.22-3.57-8.87-.16-.41-.41-1.07-.74-1.97-1.52-3.94-2.36-6.96-2.53-9.06-.16-1.6.14-2.94.92-4.01.29-.41.62-.74.99-.99.99-.66 2.28-.88 3.88-.68.21.04.49.1.86.18l-.25-.25 1.48.68c.53.25.96.53 1.29.86.58.58 1.09 1.6 1.54 3.08.86 2.63 1.77 5.46 2.71 8.5l.31.99c.12.41.31 1.07.55 1.97.53 2.18 1.11 3.72 1.73 4.62l.06.06c.12.21.23.35.31.43.37.37.64.47.8.31.04-.04.1-.14.19-.31.94-2.26 2.03-5.83 3.27-10.72.16-.7.33-1.31.49-1.85l.12-.55c.25-1.03.45-1.81.62-2.34.16-.53.45-1.23.86-2.1.41-.86.84-1.52 1.29-1.97s1.08-.83 1.88-1.14 1.69-.44 2.68-.4c.37.04.76.12 1.17.25l.25.06.37.18c.86.41 1.52.95 1.97 1.6.29.49.51 1.07.68 1.73l.06.37z"/></g></svg>