<svg xmlns="http://www.w3.org/2000/svg" fill="none" viewBox="0 0 121 40">
  <g clip-path="url(#a)">
    <path fill="url(#b)" d="M.17402 19.3257c-.10624 2.9831.4676 5.8823 1.60268 8.5168.61438 1.4262 2.41486 1.8811 3.62963.9133l6.37857-5.0816c1.4783-1.1775 1.0345-3.5289-.7716-4.0872l-7.79327-2.4087c-1.47408-.4556-2.9915.6065-3.04601 2.1474Z"/>
    <path fill="url(#c)" d="M6.44706 5.51971C4.35092 7.47841 2.66297 9.9046 1.56422 12.6802c-.56754 1.4339.397 3.0146 1.92979 3.1879l8.10569.9161c1.8781.2124 3.2277-1.7645 2.345-3.4353l-3.8065-7.21147c-.72481-1.37311-2.55605-1.67778-3.69114-.61772Z"/>
    <path fill="url(#d)" d="M39.8476 20.6862c.1063-2.9831-.4676-5.8824-1.6027-8.5168-.6143-1.4263-2.4148-1.8812-3.6296-.9133l-6.3786 5.0815c-1.4783 1.1775-1.0344 3.5289.7717 4.0872l7.7939 2.4088c1.4734.4556 2.9908-.6059 3.0453-2.1474Z"/>
    <path fill="url(#e)" d="M34.5 6.4456c-1.9592-2.09566-4.3859-3.78324-7.1621-4.88173-1.4343-.56742-3.0153.39691-3.1886 1.92935l-.9163 8.10388c-.2125 1.8776 1.7648 3.227 3.436 2.3444l7.2131-3.8056c1.3734-.72465 1.6782-2.55617.6179-3.6903Z"/>
    <path fill="url(#f)" d="M33.5746 34.4921c2.0961-1.9587 3.7841-4.3849 4.8828-7.1604.5675-1.434-.397-3.0146-1.9298-3.1879l-8.1057-.9161c-1.878-.2125-3.2277 1.7644-2.3449 3.4352l3.8064 7.2115c.7241 1.3731 2.5561 1.6778 3.6912.6177Z"/>
    <path fill="url(#g)" d="M19.3454 39.8497c2.9845.0979 5.8824-.4828 8.5146-1.6246 1.4251-.6185 1.8753-2.4192.9037-3.6316l-5.0995-6.3639c-1.1819-1.4751-3.5325-1.0251-4.086.7819l-2.389 7.7985c-.4516 1.4745.6143 2.9887 2.1562 3.0397Z"/>
    <path fill="url(#h)" d="m20.4302 11.0108 2.4092-7.7922c.4558-1.47374-.6059-2.99081-2.1478-3.04532-2.9838-.10621-5.8837.4675-8.5188 1.60232-1.4265.61424-1.8815 2.41431-.9135 3.62881l5.0827 6.37709c1.1778 1.4787 3.5297 1.0349 4.0882-.7707Z"/>
    <path fill="url(#i)" d="M5.52166 33.5662c1.95914 2.0957 4.38589 3.7833 7.16214 4.8818 1.4342.5674 3.0152-.3969 3.1886-1.9294l.9163-8.1038c.2125-1.8777-1.7649-3.227-3.436-2.3445l-7.21317 3.8056c-1.37343.7247-1.67817 2.5562-.61787 3.6903Z"/>
  </g>
  <path fill="#8A20FB" d="M55.592 24.832h5.376V28h-9.48V11.152h4.104v13.68Zm20.5575-10.224V28h-4.104v-1.824c-.416.592-.984 1.072-1.704 1.44-.704.352-1.488.528-2.352.528-1.024 0-1.928-.224-2.712-.672-.784-.464-1.392-1.128-1.824-1.992-.432-.864-.648-1.88-.648-3.048v-7.824h4.08v7.272c0 .896.232 1.592.696 2.088.464.496 1.088.744 1.872.744.8 0 1.432-.248 1.896-.744.464-.496.696-1.192.696-2.088v-7.272h4.104Zm11.1079-.144c1.568 0 2.816.512 3.744 1.536.944 1.008 1.416 2.4 1.416 4.176V28h-4.08v-7.272c0-.896-.232-1.592-.696-2.088-.464-.496-1.088-.744-1.872-.744s-1.408.248-1.872.744c-.464.496-.696 1.192-.696 2.088V28h-4.104V14.608h4.104v1.776c.416-.592.976-1.056 1.68-1.392.704-.352 1.496-.528 2.376-.528Zm7.1959 6.816c0-1.376.256-2.584.768-3.624.528-1.04 1.24-1.84 2.136-2.4.896-.56 1.896-.84 2.9997-.84.944 0 1.768.192 2.472.576.72.384 1.272.888 1.656 1.512v-1.896h4.104V28h-4.104v-1.896c-.4.624-.96 1.128-1.68 1.512-.704.384-1.528.576-2.472.576-1.0877 0-2.0797-.28-2.9757-.84-.896-.576-1.608-1.384-2.136-2.424-.512-1.056-.768-2.272-.768-3.648Zm10.0317.024c0-1.024-.288-1.832-.864-2.424-.56-.592-1.248-.888-2.064-.888-.816 0-1.512.296-2.0877.888-.56.576-.84 1.376-.84 2.4s.28 1.84.84 2.448c.5757.592 1.2717.888 2.0877.888.816 0 1.504-.296 2.064-.888.576-.592.864-1.4.864-2.424Zm11.177-4.464c.48-.736 1.08-1.312 1.8-1.728.72-.432 1.52-.648 2.4-.648v4.344h-1.128c-1.024 0-1.792.224-2.304.672-.512.432-.768 1.2-.768 2.304V28h-4.104V14.608h4.104v2.232Z"/>
  <defs>
    <linearGradient id="b" x1="39.4117" x2="1.76469" y1="15.1176" y2="27.7059" gradientUnits="userSpaceOnUse">
      <stop stop-color="#DB00FF"/>
      <stop offset="1" stop-color="#2E43F5"/>
    </linearGradient>
    <linearGradient id="c" x1="39.4117" x2="1.76469" y1="15.1176" y2="27.7059" gradientUnits="userSpaceOnUse">
      <stop stop-color="#DB00FF"/>
      <stop offset="1" stop-color="#2E43F5"/>
    </linearGradient>
    <linearGradient id="d" x1="39.4117" x2="1.76469" y1="15.1176" y2="27.7059" gradientUnits="userSpaceOnUse">
      <stop stop-color="#DB00FF"/>
      <stop offset="1" stop-color="#2E43F5"/>
    </linearGradient>
    <linearGradient id="e" x1="39.4117" x2="1.76469" y1="15.1176" y2="27.7059" gradientUnits="userSpaceOnUse">
      <stop stop-color="#DB00FF"/>
      <stop offset="1" stop-color="#2E43F5"/>
    </linearGradient>
    <linearGradient id="f" x1="39.4117" x2="1.76469" y1="15.1176" y2="27.7059" gradientUnits="userSpaceOnUse">
      <stop stop-color="#DB00FF"/>
      <stop offset="1" stop-color="#2E43F5"/>
    </linearGradient>
    <linearGradient id="g" x1="39.4117" x2="1.76469" y1="15.1176" y2="27.7059" gradientUnits="userSpaceOnUse">
      <stop stop-color="#DB00FF"/>
      <stop offset="1" stop-color="#2E43F5"/>
    </linearGradient>
    <linearGradient id="h" x1="39.4117" x2="1.76469" y1="15.1176" y2="27.7059" gradientUnits="userSpaceOnUse">
      <stop stop-color="#DB00FF"/>
      <stop offset="1" stop-color="#2E43F5"/>
    </linearGradient>
    <linearGradient id="i" x1="39.4117" x2="1.76469" y1="15.1176" y2="27.7059" gradientUnits="userSpaceOnUse">
      <stop stop-color="#DB00FF"/>
      <stop offset="1" stop-color="#2E43F5"/>
    </linearGradient>
    <clipPath id="a">
      <path fill="#fff" d="M0 0h40v40H0z"/>
    </clipPath>
  </defs>
</svg>
