<svg xmlns="http://www.w3.org/2000/svg" fill="none" viewBox="0 0 113 34">
  <g clip-path="url(#a)">
    <path fill="url(#b)" d="M.01071 16.4139c-.09099 2.5548.40048 5.038 1.37262 7.2942.52618 1.2215 2.06822 1.6111 3.10861.7822l5.46294-4.3522c1.26612-1.0083.88602-3.0223-.66084-3.5005l-6.67457-2.0629c-1.26248-.3902-2.56208.5194-2.60876 1.8392Z"/>
    <path fill="url(#c)" d="M5.38328 4.58967C3.58803 6.2672 2.14237 8.34512 1.20135 10.7223c-.48607 1.2281.34002 2.5819 1.65278 2.7303l6.94214.7846c1.60853.1819 2.76433-1.5112 2.00843-2.9422L8.54456 5.11873c-.62076-1.17602-2.18913-1.43695-3.16128-.52906Z"/>
    <path fill="url(#d)" d="M33.9893 17.5791c.091-2.5549-.4005-5.038-1.3727-7.2943-.5261-1.22146-2.0681-1.61115-3.1085-.78219l-5.463 4.35219c-1.266 1.0084-.8859 3.0222.6609 3.5005l6.6751 2.0629c1.2619.3902 2.5615-.5189 2.6082-1.8391Z"/>
    <path fill="url(#e)" d="M29.4093 5.38266c-1.678-1.79484-3.7563-3.24017-6.134-4.18098-1.2284-.48596-2.5825.33994-2.7309 1.6524l-.7848 6.94058c-.1819 1.60804 1.5115 2.76374 2.9428 2.00784l6.1777-3.25929c1.1763-.62061 1.4373-2.18922.5292-3.16055Z"/>
    <path fill="url(#f)" d="M28.6167 29.4032c1.7953-1.6775 3.241-3.7554 4.1819-6.1326.4862-1.2281-.34-2.5818-1.6527-2.7303l-6.9422-.7846c-1.6084-.1819-2.7644 1.5112-2.0083 2.9421l3.26 6.1763c.6202 1.176 2.1892 1.437 3.1613.5291Z"/>
    <path fill="url(#g)" d="M16.4301 33.9918c2.5561.0838 5.038-.4136 7.2924-1.3915 1.2205-.5297 1.6061-2.0719.7739-3.1103l-4.3675-5.4504c-1.0122-1.2633-3.0254-.8779-3.4994.6698l-2.0461 6.6789c-.3867 1.2629.5261 2.5597 1.8467 2.6035Z"/>
    <path fill="url(#h)" d="m17.3592 9.29252 2.0634-6.67365c.3903-1.26219-.519-2.56148-1.8395-2.60816-2.5555-.09097-5.0392.40038-7.296 1.37231-1.22174.52606-1.61142 2.06775-.78237 3.1079l4.35317 5.46176c1.0087 1.26632 3.0229.88632 3.5013-.66016Z"/>
    <path fill="url(#i)" d="M4.59071 28.6103c1.67792 1.7947 3.75631 3.2401 6.13399 4.1809 1.2284.486 2.5824-.3399 2.7309-1.6524l.7848-6.9406c.182-1.608-1.5116-2.7637-2.9428-2.0078l-6.17772 3.2593c-1.17628.6206-1.43727 2.1892-.52917 3.1606Z"/>
    <path fill="#5E31F8" d="M48.104 21.68h5.376v3.168H44V8h4.104v13.68Zm20.5575-10.224v13.392h-4.104v-1.824c-.416.592-.984 1.072-1.704 1.44-.704.352-1.488.528-2.352.528-1.024 0-1.928-.224-2.712-.672-.784-.464-1.392-1.128-1.824-1.992-.432-.864-.648-1.88-.648-3.048v-7.824h4.08v7.272c0 .896.232 1.592.696 2.088.464.496 1.088.744 1.872.744.8 0 1.432-.248 1.896-.744.464-.496.696-1.192.696-2.088v-7.272h4.104Zm11.1079-.144c1.568 0 2.816.512 3.744 1.536.944 1.008 1.416 2.4 1.416 4.176v7.824h-4.08v-7.272c0-.896-.232-1.592-.696-2.088-.464-.496-1.088-.744-1.872-.744s-1.408.248-1.872.744c-.464.496-.696 1.192-.696 2.088v7.272h-4.104V11.456h4.104v1.776c.416-.592.976-1.056 1.68-1.392.704-.352 1.496-.528 2.376-.528Zm7.1956 6.816c0-1.376.256-2.584.768-3.624.528-1.04 1.24-1.84 2.136-2.4.896-.56 1.896-.84 3-.84.944 0 1.768.192 2.472.576.72.384 1.272.888 1.656 1.512v-1.896h4.104v13.392h-4.104v-1.896c-.4.624-.96 1.128-1.68 1.512-.704.384-1.528.576-2.472.576-1.088 0-2.08-.28-2.976-.84-.896-.576-1.608-1.384-2.136-2.424-.512-1.056-.768-2.272-.768-3.648Zm10.032.024c0-1.024-.288-1.832-.864-2.424-.56-.592-1.248-.888-2.064-.888-.816 0-1.512.296-2.088.888-.56.576-.84 1.376-.84 2.4s.28 1.84.84 2.448c.576.592 1.272.888 2.088.888.816 0 1.504-.296 2.064-.888.576-.592.864-1.4.864-2.424Zm11.177-4.464c.48-.736 1.08-1.312 1.8-1.728.72-.432 1.52-.648 2.4-.648v4.344h-1.128c-1.024 0-1.792.224-2.304.672-.512.432-.768 1.2-.768 2.304v6.216h-4.104V11.456h4.104v2.232Z"/>
  </g>
  <defs>
    <linearGradient id="b" x1="33.616" x2="1.37304" y1="12.8098" y2="23.5911" gradientUnits="userSpaceOnUse">
      <stop stop-color="#DB00FF"/>
      <stop offset="1" stop-color="#2E43F5"/>
    </linearGradient>
    <linearGradient id="c" x1="33.616" x2="1.37305" y1="12.8098" y2="23.5911" gradientUnits="userSpaceOnUse">
      <stop stop-color="#DB00FF"/>
      <stop offset="1" stop-color="#2E43F5"/>
    </linearGradient>
    <linearGradient id="d" x1="33.616" x2="1.37305" y1="12.8098" y2="23.5911" gradientUnits="userSpaceOnUse">
      <stop stop-color="#DB00FF"/>
      <stop offset="1" stop-color="#2E43F5"/>
    </linearGradient>
    <linearGradient id="e" x1="33.616" x2="1.37305" y1="12.8098" y2="23.5911" gradientUnits="userSpaceOnUse">
      <stop stop-color="#DB00FF"/>
      <stop offset="1" stop-color="#2E43F5"/>
    </linearGradient>
    <linearGradient id="f" x1="33.616" x2="1.37305" y1="12.8098" y2="23.5911" gradientUnits="userSpaceOnUse">
      <stop stop-color="#DB00FF"/>
      <stop offset="1" stop-color="#2E43F5"/>
    </linearGradient>
    <linearGradient id="g" x1="33.616" x2="1.37304" y1="12.8098" y2="23.5911" gradientUnits="userSpaceOnUse">
      <stop stop-color="#DB00FF"/>
      <stop offset="1" stop-color="#2E43F5"/>
    </linearGradient>
    <linearGradient id="h" x1="33.616" x2="1.37304" y1="12.8098" y2="23.5911" gradientUnits="userSpaceOnUse">
      <stop stop-color="#DB00FF"/>
      <stop offset="1" stop-color="#2E43F5"/>
    </linearGradient>
    <linearGradient id="i" x1="33.616" x2="1.37304" y1="12.8098" y2="23.5911" gradientUnits="userSpaceOnUse">
      <stop stop-color="#DB00FF"/>
      <stop offset="1" stop-color="#2E43F5"/>
    </linearGradient>
    <clipPath id="a">
      <path fill="#fff" d="M0 0h113v34.0009H0z"/>
    </clipPath>
  </defs>
</svg>
